<svg width="176" height="176" viewBox="0 0 176 176" fill="none" xmlns="http://www.w3.org/2000/svg">
<g id="Group">
<path id="8 (89%)" d="M88 0C108.689 -9.04346e-07 128.717 7.28943 144.565 20.5881C160.414 33.8867 171.07 52.3442 174.663 72.719C178.256 93.0937 174.555 114.083 164.21 132C153.866 149.917 137.539 163.617 118.098 170.693C98.6564 177.769 77.3436 177.769 57.9022 170.693C38.4609 163.617 22.1343 149.917 11.7898 132C1.44525 114.083 -2.2557 93.0937 1.33692 72.7189C4.92954 52.3442 15.586 33.8867 31.4347 20.5881L88 88L88 0Z" fill="#058DFF"/>
<path id="1 (11%)" d="M31.4347 20.5881C47.2834 7.28943 67.311 -2.46714e-07 88 0V88L31.4347 20.5881Z" fill="#94CEFF"/>
</g>
</svg>
